<svg version="1.1" width="1024" height="1024" viewBox="0 0 24 24" xmlns="http://www.w3.org/2000/svg"><path d="M11.071 0.027 C 11.022 0.039,10.862 0.067,10.715 0.091 C 10.181 0.176,9.648 0.343,9.175 0.574 C 8.084 1.106,7.281 2.008,6.821 3.218 C 6.706 3.520,6.703 3.538,6.759 3.538 C 6.817 3.538,7.251 3.688,7.316 3.730 C 7.371 3.766,7.374 3.762,7.456 3.544 C 7.781 2.679,8.271 1.983,8.920 1.463 C 8.990 1.407,9.053 1.354,9.060 1.346 C 9.102 1.295,9.635 0.969,9.872 0.851 C 10.594 0.490,11.609 0.272,12.356 0.317 C 13.615 0.394,14.769 0.832,15.652 1.567 C 16.045 1.894,16.512 2.412,16.753 2.787 C 16.902 3.019,17.152 3.523,17.242 3.773 C 17.316 3.977,17.326 3.986,17.449 3.947 C 17.490 3.934,17.576 3.916,17.642 3.907 L 17.761 3.891 17.715 3.759 C 17.469 3.044,16.684 2.072,15.843 1.440 C 15.611 1.265,15.148 0.951,14.943 0.828 C 14.651 0.653,14.069 0.406,13.654 0.281 C 12.931 0.063,12.629 0.019,11.796 0.011 C 11.446 0.008,11.120 0.015,11.071 0.027 M11.638 0.537 C 10.670 0.650,9.721 1.046,9.035 1.625 C 8.358 2.197,7.905 2.857,7.611 3.702 C 7.553 3.870,7.501 4.011,7.496 4.016 C 7.491 4.021,7.442 4.002,7.387 3.973 C 7.218 3.887,6.695 3.725,6.426 3.675 C 6.077 3.609,5.289 3.610,4.925 3.675 C 4.182 3.808,3.351 4.224,2.888 4.692 C 2.240 5.350,1.889 6.153,1.865 7.038 C 1.856 7.340,1.862 7.396,1.931 7.665 C 2.057 8.157,2.243 8.496,2.582 8.854 C 2.746 9.027,3.130 9.350,3.149 9.331 C 3.155 9.324,3.136 9.265,3.107 9.199 C 3.041 9.049,3.041 9.046,3.114 9.103 C 3.664 9.534,3.933 9.676,4.431 9.802 L 4.670 9.862 11.885 9.862 L 19.101 9.862 19.317 9.805 C 19.917 9.645,20.517 9.224,20.868 8.716 C 21.148 8.312,21.284 7.952,21.332 7.496 C 21.441 6.446,20.854 5.406,19.861 4.894 C 19.424 4.668,19.062 4.578,18.592 4.578 C 18.171 4.577,17.654 4.691,17.438 4.831 C 17.363 4.880,17.350 4.861,17.292 4.620 C 17.199 4.230,16.985 3.628,16.831 3.326 C 16.588 2.845,16.267 2.422,15.810 1.982 C 14.974 1.176,13.827 0.654,12.638 0.536 C 12.322 0.505,11.909 0.506,11.638 0.537 M17.828 4.089 C 17.643 4.112,17.381 4.184,17.390 4.210 C 17.396 4.225,17.421 4.314,17.446 4.407 L 17.491 4.577 17.596 4.539 C 18.110 4.354,18.801 4.331,19.361 4.481 C 20.357 4.746,21.215 5.587,21.451 6.528 C 21.565 6.983,21.582 7.276,21.516 7.663 C 21.394 8.387,20.990 9.047,20.384 9.510 C 20.202 9.649,19.810 9.854,19.570 9.935 C 19.121 10.087,19.578 10.078,11.901 10.078 C 5.841 10.078,4.840 10.073,4.625 10.041 C 4.357 10.000,4.150 9.946,3.975 9.872 C 3.849 9.818,3.849 9.841,3.975 9.905 C 4.377 10.109,4.986 10.331,5.370 10.412 C 5.620 10.465,5.717 10.469,6.840 10.480 L 8.042 10.490 8.042 11.274 L 8.042 12.057 9.264 13.265 C 9.936 13.930,10.486 14.485,10.486 14.500 C 10.486 14.515,10.469 14.533,10.448 14.541 C 10.375 14.569,10.308 14.718,10.308 14.851 C 10.307 15.026,10.373 15.141,10.520 15.220 L 10.638 15.283 10.638 16.460 L 10.638 17.636 10.244 18.022 L 9.849 18.408 9.849 20.161 C 9.849 21.562,9.843 21.913,9.817 21.913 C 9.799 21.913,9.742 21.948,9.690 21.991 C 9.394 22.235,9.648 22.721,10.009 22.602 C 10.305 22.505,10.344 22.079,10.070 21.948 L 9.985 21.907 9.979 20.198 L 9.973 18.489 10.376 18.099 L 10.778 17.709 10.786 16.496 L 10.794 15.283 10.890 15.242 C 11.086 15.159,11.193 14.912,11.123 14.702 C 11.090 14.601,10.950 14.465,10.855 14.441 L 10.792 14.425 10.785 13.429 L 10.778 12.433 10.848 12.373 C 10.945 12.291,10.949 12.117,10.855 12.043 L 10.793 11.994 10.791 11.272 C 10.790 10.874,10.790 10.535,10.790 10.517 C 10.791 10.494,10.857 10.486,11.033 10.486 L 11.275 10.486 11.275 11.111 L 11.275 11.737 11.569 12.038 C 11.753 12.226,11.862 12.357,11.859 12.386 C 11.846 12.511,11.862 12.550,11.938 12.583 L 12.017 12.616 12.014 13.447 L 12.011 14.278 12.088 14.278 L 12.165 14.278 12.166 13.432 C 12.167 12.728,12.173 12.577,12.204 12.536 C 12.225 12.509,12.242 12.449,12.242 12.404 C 12.242 12.302,12.144 12.216,12.028 12.216 C 11.961 12.216,11.907 12.175,11.688 11.955 L 11.427 11.694 11.427 11.090 L 11.427 10.486 12.064 10.486 L 12.700 10.486 12.700 11.949 C 12.700 13.140,12.694 13.413,12.666 13.413 C 12.601 13.413,12.493 13.557,12.478 13.664 C 12.450 13.873,12.578 14.023,12.785 14.023 C 13.052 14.023,13.194 13.715,13.026 13.501 C 12.997 13.464,12.946 13.424,12.913 13.411 L 12.853 13.388 12.853 11.937 L 12.853 10.486 14.049 10.486 L 15.245 10.486 15.245 11.106 L 15.245 11.727 15.181 11.769 C 15.146 11.792,15.118 11.827,15.118 11.848 C 15.118 11.878,15.078 11.885,14.927 11.885 L 14.736 11.885 14.736 14.210 L 14.736 16.535 14.226 17.042 C 13.809 17.456,13.700 17.551,13.628 17.563 C 13.506 17.584,13.438 17.653,13.438 17.754 C 13.438 17.807,13.420 17.850,13.391 17.871 C 13.365 17.890,13.147 18.094,12.908 18.327 C 12.522 18.699,12.463 18.747,12.400 18.738 C 12.296 18.723,12.216 18.798,12.199 18.930 C 12.188 19.008,12.163 19.056,12.109 19.101 C 12.021 19.175,12.005 19.178,11.960 19.124 C 11.942 19.102,11.872 19.056,11.804 19.022 C 11.689 18.963,11.682 18.954,11.682 18.859 C 11.682 18.767,11.675 18.757,11.618 18.757 C 11.560 18.757,11.555 18.767,11.555 18.865 C 11.555 18.971,11.551 18.975,11.427 19.032 C 11.209 19.132,11.098 19.382,11.171 19.605 C 11.205 19.707,11.370 19.869,11.479 19.907 L 11.552 19.932 11.553 21.620 L 11.555 23.307 11.494 23.323 C 11.420 23.341,11.281 23.494,11.259 23.581 C 11.232 23.691,11.274 23.826,11.363 23.915 C 11.438 23.990,11.463 24.000,11.584 24.000 C 11.750 23.999,11.828 23.963,11.904 23.850 C 12.015 23.685,11.953 23.449,11.775 23.356 L 11.682 23.308 11.682 21.620 L 11.682 19.932 11.766 19.904 C 11.865 19.871,12.024 19.716,12.062 19.614 C 12.077 19.575,12.089 19.492,12.089 19.430 C 12.089 19.330,12.101 19.306,12.195 19.222 C 12.284 19.141,12.316 19.128,12.395 19.134 C 12.473 19.141,12.499 19.130,12.545 19.072 C 12.583 19.024,12.596 18.982,12.586 18.937 C 12.573 18.879,12.626 18.817,13.051 18.394 C 13.460 17.987,13.541 17.917,13.607 17.917 C 13.700 17.917,13.794 17.826,13.794 17.736 C 13.794 17.687,13.917 17.551,14.334 17.139 L 14.874 16.607 14.878 14.380 C 14.881 13.155,14.884 12.121,14.886 12.081 C 14.888 12.015,14.895 12.011,14.984 12.019 C 15.051 12.026,15.105 12.054,15.164 12.113 L 15.248 12.198 15.242 12.643 C 15.235 13.081,15.236 13.089,15.294 13.136 C 15.415 13.234,15.601 13.162,15.601 13.017 C 15.601 12.942,15.498 12.827,15.431 12.827 C 15.389 12.827,15.385 12.798,15.385 12.515 L 15.385 12.204 15.481 12.108 L 15.578 12.013 15.845 12.013 L 16.113 12.013 16.105 11.472 L 16.098 10.931 16.034 10.931 L 15.970 10.931 15.963 11.408 L 15.956 11.885 15.762 11.885 C 15.574 11.885,15.565 11.883,15.483 11.798 L 15.398 11.710 15.398 11.098 L 15.398 10.486 17.329 10.486 C 19.125 10.486,19.281 10.482,19.550 10.436 C 20.692 10.241,21.622 9.466,21.972 8.418 C 22.091 8.064,22.117 7.876,22.116 7.375 C 22.116 6.854,22.082 6.653,21.938 6.313 C 21.708 5.775,21.390 5.413,20.681 4.880 C 19.922 4.311,19.195 4.068,18.274 4.076 C 18.071 4.078,17.870 4.084,17.828 4.089 M8.831 11.376 L 8.831 12.267 9.670 12.267 C 10.486 12.267,10.508 12.269,10.524 12.318 C 10.533 12.346,10.562 12.381,10.589 12.395 C 10.637 12.421,10.638 12.459,10.638 13.413 C 10.638 13.959,10.634 14.405,10.628 14.405 C 10.622 14.405,10.070 13.862,9.400 13.199 L 8.182 11.992 8.175 11.239 L 8.167 10.486 8.499 10.486 L 8.831 10.486 8.831 11.376 M10.638 11.243 L 10.638 12.000 10.551 12.070 L 10.463 12.140 9.738 12.140 C 9.339 12.140,9.007 12.131,9.000 12.119 C 8.989 12.102,8.975 10.864,8.982 10.568 L 8.984 10.486 9.811 10.486 L 10.638 10.486 10.638 11.243 M13.922 10.834 C 13.765 10.893,13.723 11.064,13.832 11.194 L 13.896 11.269 13.896 13.423 L 13.896 15.576 12.725 15.576 L 11.555 15.576 11.555 15.818 C 11.555 16.059,11.555 16.059,11.618 16.059 C 11.680 16.059,11.682 16.053,11.682 15.894 L 11.682 15.729 12.850 15.729 L 14.017 15.729 14.027 15.671 C 14.032 15.640,14.036 14.632,14.036 13.432 C 14.036 12.231,14.045 11.249,14.056 11.249 C 14.107 11.249,14.201 11.119,14.201 11.048 C 14.201 10.914,14.038 10.790,13.922 10.834 M17.892 11.389 C 17.892 11.758,17.886 11.835,17.856 11.835 C 17.800 11.835,17.714 11.960,17.714 12.040 C 17.714 12.138,17.761 12.233,17.832 12.280 C 17.889 12.317,17.892 12.334,17.892 12.592 L 17.892 12.865 17.787 12.916 C 17.549 13.031,17.518 13.346,17.728 13.511 C 17.806 13.572,17.941 13.603,18.030 13.581 C 18.195 13.539,18.320 13.340,18.288 13.170 C 18.269 13.069,18.164 12.934,18.079 12.902 C 18.021 12.880,18.019 12.870,18.019 12.588 C 18.019 12.316,18.023 12.295,18.071 12.279 C 18.100 12.270,18.142 12.225,18.164 12.179 C 18.220 12.061,18.191 11.927,18.094 11.855 L 18.019 11.800 18.019 11.372 L 18.019 10.944 17.955 10.944 L 17.892 10.944 17.892 11.389 M5.701 11.604 L 5.701 12.212 5.625 12.289 C 5.567 12.346,5.548 12.389,5.548 12.459 C 5.548 12.530,5.567 12.569,5.625 12.624 L 5.701 12.695 5.701 13.747 L 5.701 14.800 5.599 14.857 C 5.479 14.926,5.413 15.041,5.413 15.183 C 5.412 15.479,5.746 15.641,5.975 15.457 C 6.173 15.297,6.170 15.066,5.967 14.897 L 5.854 14.802 5.854 13.753 L 5.854 12.704 5.930 12.627 C 5.987 12.570,6.006 12.528,6.006 12.458 C 6.006 12.389,5.987 12.346,5.930 12.289 L 5.854 12.212 5.854 11.604 L 5.854 10.995 5.777 10.995 L 5.701 10.995 5.701 11.604 M7.200 11.128 C 7.199 11.202,7.195 11.288,7.192 11.319 C 7.187 11.367,7.198 11.376,7.258 11.376 L 7.330 11.376 7.330 11.186 C 7.330 10.999,7.328 10.995,7.266 10.995 C 7.207 10.995,7.202 11.003,7.200 11.128 M16.569 11.281 C 16.569 11.438,16.578 11.579,16.588 11.594 C 16.598 11.609,16.632 11.621,16.664 11.621 C 16.720 11.620,16.721 11.614,16.721 11.323 C 16.721 11.037,16.719 11.026,16.664 11.011 C 16.632 11.002,16.598 10.995,16.587 10.995 C 16.577 10.995,16.569 11.124,16.569 11.281 M7.203 11.784 C 7.203 11.957,7.204 11.962,7.266 11.962 C 7.328 11.962,7.330 11.957,7.330 11.784 C 7.330 11.611,7.328 11.606,7.266 11.606 C 7.204 11.606,7.203 11.611,7.203 11.784 M16.579 11.868 C 16.572 11.887,16.570 12.010,16.574 12.142 C 16.581 12.379,16.582 12.382,16.645 12.382 C 16.708 12.382,16.708 12.381,16.716 12.108 L 16.723 11.835 16.658 11.835 C 16.622 11.835,16.586 11.850,16.579 11.868 M7.198 12.369 C 7.206 12.565,7.209 12.573,7.268 12.573 C 7.328 12.573,7.330 12.568,7.330 12.369 L 7.330 12.165 7.260 12.165 L 7.190 12.165 7.198 12.369 M15.949 12.390 L 15.881 12.461 15.940 12.517 L 15.999 12.573 16.067 12.501 C 16.148 12.417,16.153 12.380,16.087 12.344 C 16.022 12.310,16.028 12.308,15.949 12.390 M15.659 12.690 C 15.570 12.781,15.556 12.830,15.609 12.874 C 15.634 12.894,15.668 12.878,15.750 12.806 L 15.857 12.710 15.799 12.657 L 15.741 12.605 15.659 12.690 M16.568 12.903 L 16.568 13.183 16.645 13.183 L 16.721 13.183 16.721 12.903 L 16.721 12.624 16.645 12.624 L 16.568 12.624 16.568 12.903 M7.177 12.884 C 7.178 12.944,7.185 13.036,7.193 13.088 C 7.206 13.167,7.220 13.183,7.270 13.183 C 7.328 13.183,7.330 13.177,7.330 12.980 L 7.330 12.776 7.253 12.776 C 7.181 12.776,7.177 12.781,7.177 12.884 M18.065 13.083 C 18.135 13.148,18.142 13.310,18.076 13.367 C 18.000 13.435,17.923 13.444,17.843 13.397 C 17.723 13.326,17.705 13.190,17.802 13.093 C 17.878 13.016,17.989 13.012,18.065 13.083 M8.806 13.400 C 8.806 13.614,8.807 13.616,8.870 13.616 C 8.928 13.616,8.933 13.607,8.933 13.495 C 8.934 13.429,8.941 13.331,8.950 13.279 C 8.965 13.186,8.964 13.183,8.886 13.183 L 8.806 13.183 8.806 13.400 M15.245 15.785 L 15.245 18.314 15.164 18.338 C 15.120 18.352,15.048 18.407,15.005 18.460 C 14.938 18.544,14.927 18.579,14.927 18.704 C 14.927 18.826,14.939 18.866,15.000 18.946 C 15.041 18.999,15.112 19.059,15.159 19.078 L 15.245 19.114 15.245 20.436 L 15.245 21.758 15.153 21.802 C 15.102 21.826,15.039 21.881,15.012 21.924 C 14.913 22.081,15.004 22.337,15.186 22.413 C 15.515 22.551,15.798 22.083,15.525 21.853 C 15.484 21.819,15.440 21.787,15.427 21.782 C 15.413 21.777,15.399 21.228,15.394 20.443 L 15.385 19.113 15.492 19.060 C 15.664 18.975,15.752 18.787,15.704 18.607 C 15.669 18.479,15.587 18.378,15.482 18.334 L 15.398 18.298 15.393 15.989 C 15.386 12.958,15.395 13.274,15.313 13.264 L 15.245 13.256 15.245 15.785 M7.195 13.378 C 7.185 13.387,7.177 13.639,7.177 13.936 L 7.177 14.476 7.082 14.525 C 6.979 14.577,6.872 14.748,6.872 14.861 C 6.872 14.978,6.972 15.141,7.078 15.195 L 7.177 15.246 7.177 15.875 L 7.177 16.505 7.058 16.568 C 6.916 16.644,6.851 16.726,6.819 16.871 C 6.735 17.244,7.135 17.540,7.468 17.351 C 7.651 17.246,7.743 16.955,7.650 16.777 C 7.602 16.685,7.486 16.578,7.400 16.545 L 7.330 16.519 7.330 15.888 L 7.330 15.258 7.425 15.207 C 7.703 15.057,7.707 14.665,7.431 14.526 L 7.343 14.482 7.330 13.928 C 7.318 13.395,7.315 13.374,7.265 13.367 C 7.237 13.363,7.205 13.368,7.195 13.378 M16.585 13.429 C 16.576 13.439,16.568 13.565,16.568 13.709 L 16.568 13.972 16.645 13.972 L 16.721 13.972 16.721 13.692 C 16.721 13.416,16.720 13.413,16.662 13.413 C 16.629 13.413,16.595 13.420,16.585 13.429 M8.823 13.837 C 8.802 13.858,8.800 14.183,8.821 14.238 C 8.830 14.260,8.862 14.278,8.894 14.278 C 8.947 14.278,8.950 14.266,8.954 14.093 C 8.956 13.992,8.951 13.889,8.944 13.864 C 8.930 13.820,8.856 13.804,8.823 13.837 M16.586 14.217 C 16.577 14.227,16.568 14.359,16.568 14.511 L 16.568 14.787 16.646 14.787 L 16.723 14.787 16.716 14.501 C 16.709 14.234,16.705 14.214,16.656 14.207 C 16.628 14.203,16.596 14.207,16.586 14.217 M12.026 14.653 C 12.036 14.947,12.032 14.934,12.102 14.920 C 12.163 14.909,12.165 14.901,12.165 14.708 L 12.165 14.507 12.094 14.507 C 12.023 14.507,12.022 14.509,12.026 14.653 M8.811 14.742 C 8.818 14.938,8.823 14.953,8.876 14.960 C 8.931 14.968,8.933 14.962,8.933 14.750 C 8.933 14.534,8.933 14.532,8.869 14.532 C 8.804 14.532,8.804 14.532,8.811 14.742 M10.868 14.622 C 10.962 14.670,10.995 14.732,10.993 14.855 L 10.991 14.952 10.954 14.850 C 10.912 14.735,10.831 14.661,10.745 14.660 C 10.650 14.659,10.535 14.733,10.497 14.820 C 10.469 14.887,10.462 14.891,10.461 14.846 C 10.459 14.743,10.510 14.658,10.594 14.621 C 10.702 14.574,10.777 14.574,10.868 14.622 M5.916 15.047 C 5.971 15.126,5.966 15.260,5.905 15.321 C 5.836 15.389,5.708 15.387,5.633 15.317 C 5.552 15.241,5.551 15.086,5.630 15.030 C 5.717 14.970,5.868 14.979,5.916 15.047 M16.568 15.714 L 16.568 16.412 16.512 16.430 C 16.333 16.487,16.232 16.639,16.232 16.853 C 16.232 16.984,16.243 17.019,16.307 17.099 C 16.417 17.237,16.528 17.287,16.691 17.272 C 16.928 17.249,17.077 17.081,17.077 16.837 C 17.077 16.772,17.061 16.686,17.040 16.647 C 16.994 16.557,16.865 16.446,16.783 16.426 L 16.721 16.410 16.721 15.713 L 16.721 15.016 16.645 15.016 L 16.568 15.016 16.568 15.714 M8.817 15.176 C 8.809 15.196,8.807 15.280,8.811 15.362 C 8.818 15.503,8.823 15.512,8.882 15.512 C 8.944 15.512,8.946 15.507,8.946 15.334 C 8.946 15.169,8.942 15.155,8.889 15.148 C 8.856 15.143,8.825 15.155,8.817 15.176 M12.022 15.296 C 12.018 15.448,12.019 15.449,12.092 15.449 C 12.165 15.449,12.165 15.447,12.165 15.296 C 12.165 15.146,12.164 15.143,12.095 15.143 C 12.027 15.144,12.025 15.148,12.022 15.296 M8.808 15.958 C 8.813 16.150,8.816 16.161,8.870 16.161 C 8.940 16.161,8.959 16.118,8.959 15.958 C 8.959 15.795,8.940 15.754,8.866 15.754 C 8.804 15.754,8.803 15.757,8.808 15.958 M12.034 15.964 C 12.018 16.299,12.021 16.314,12.095 16.314 L 12.165 16.314 12.165 16.098 C 12.165 15.884,12.165 15.881,12.102 15.881 C 12.048 15.881,12.038 15.894,12.034 15.964 M11.555 16.468 C 11.555 16.673,11.555 16.674,11.619 16.666 C 11.654 16.661,11.683 16.649,11.683 16.638 C 11.682 16.628,11.682 16.539,11.682 16.441 C 11.682 16.268,11.680 16.263,11.618 16.263 C 11.556 16.263,11.555 16.266,11.555 16.468 M8.817 16.397 C 8.810 16.417,8.807 16.513,8.811 16.609 C 8.818 16.777,8.821 16.785,8.882 16.785 C 8.945 16.785,8.946 16.781,8.946 16.581 C 8.946 16.389,8.943 16.377,8.889 16.369 C 8.856 16.365,8.825 16.377,8.817 16.397 M12.031 16.640 C 12.023 16.707,12.023 16.810,12.031 16.869 C 12.043 16.960,12.054 16.976,12.105 16.976 C 12.164 16.976,12.165 16.970,12.165 16.762 C 12.165 16.591,12.157 16.545,12.125 16.533 C 12.054 16.506,12.046 16.515,12.031 16.640 M16.858 16.674 C 16.921 16.744,16.929 16.768,16.918 16.868 C 16.900 17.028,16.813 17.110,16.657 17.113 C 16.554 17.115,16.529 17.105,16.465 17.032 C 16.367 16.923,16.363 16.783,16.455 16.674 C 16.564 16.544,16.739 16.544,16.858 16.674 M7.367 16.706 C 7.515 16.768,7.584 16.994,7.494 17.123 C 7.442 17.197,7.326 17.256,7.230 17.256 C 7.131 17.256,6.985 17.129,6.964 17.025 C 6.943 16.916,7.004 16.783,7.106 16.722 C 7.206 16.661,7.252 16.658,7.367 16.706 M11.572 16.890 C 11.563 16.900,11.555 16.992,11.555 17.094 C 11.555 17.277,11.556 17.281,11.619 17.281 C 11.684 17.281,11.684 17.280,11.677 17.084 C 11.671 16.930,11.660 16.885,11.630 16.880 C 11.608 16.875,11.582 16.880,11.572 16.890 M8.811 17.275 C 8.818 17.510,8.822 17.523,8.876 17.531 C 8.932 17.539,8.933 17.534,8.933 17.283 L 8.933 17.027 8.869 17.027 L 8.804 17.027 8.811 17.275 M12.038 17.370 C 12.038 17.557,12.040 17.561,12.102 17.561 C 12.164 17.561,12.165 17.557,12.165 17.370 C 12.165 17.183,12.164 17.179,12.102 17.179 C 12.040 17.179,12.038 17.183,12.038 17.370 M11.555 17.712 C 11.555 17.924,11.565 17.948,11.646 17.928 C 11.690 17.916,11.694 17.895,11.686 17.712 C 11.678 17.518,11.676 17.510,11.616 17.510 C 11.556 17.510,11.555 17.515,11.555 17.712 M8.806 17.905 C 8.806 18.040,8.808 18.045,8.876 18.045 C 8.945 18.045,8.946 18.042,8.937 17.905 C 8.929 17.776,8.923 17.765,8.867 17.765 C 8.810 17.765,8.806 17.774,8.806 17.905 M12.023 17.855 C 11.999 17.950,12.027 18.149,12.067 18.175 C 12.134 18.217,12.153 18.179,12.160 17.985 C 12.168 17.792,12.167 17.790,12.103 17.790 C 12.056 17.790,12.035 17.807,12.023 17.855 M11.555 18.324 C 11.555 18.483,11.563 18.533,11.593 18.544 C 11.679 18.578,11.695 18.541,11.682 18.334 C 11.670 18.150,11.664 18.133,11.612 18.125 C 11.557 18.118,11.555 18.124,11.555 18.324 M8.717 18.233 C 8.551 18.308,8.474 18.428,8.476 18.612 C 8.478 18.757,8.546 18.875,8.675 18.957 L 8.782 19.024 8.782 20.955 L 8.781 22.886 8.698 22.930 C 8.519 23.025,8.452 23.240,8.541 23.428 C 8.592 23.536,8.673 23.590,8.814 23.609 C 8.952 23.628,9.118 23.551,9.174 23.441 C 9.267 23.262,9.184 23.003,9.011 22.932 L 8.933 22.899 8.933 20.958 L 8.933 19.017 8.995 19.002 C 9.165 18.959,9.307 18.730,9.276 18.547 C 9.257 18.437,9.144 18.292,9.032 18.234 C 8.944 18.189,8.818 18.188,8.717 18.233 M12.031 18.393 C 12.025 18.404,12.023 18.482,12.027 18.566 C 12.034 18.707,12.039 18.719,12.094 18.719 C 12.149 18.719,12.153 18.710,12.153 18.554 C 12.153 18.404,12.148 18.387,12.098 18.380 C 12.068 18.376,12.038 18.382,12.031 18.393 M11.779 19.175 C 12.001 19.291,11.972 19.662,11.733 19.754 C 11.635 19.792,11.466 19.756,11.392 19.682 C 11.263 19.553,11.274 19.359,11.418 19.223 C 11.518 19.128,11.655 19.110,11.779 19.175 M11.562 19.233 C 11.531 19.239,11.475 19.280,11.439 19.323 C 11.252 19.545,11.580 19.805,11.786 19.599 C 11.908 19.477,11.877 19.317,11.719 19.251 C 11.671 19.231,11.629 19.217,11.625 19.219 C 11.621 19.221,11.593 19.227,11.562 19.233 M10.041 22.128 C 10.143 22.229,10.122 22.373,9.998 22.437 C 9.862 22.507,9.722 22.422,9.722 22.267 C 9.722 22.089,9.918 22.004,10.041 22.128 M8.998 23.121 C 9.037 23.160,9.060 23.212,9.060 23.262 C 9.060 23.358,8.962 23.466,8.873 23.466 C 8.771 23.466,8.653 23.349,8.653 23.249 C 8.653 23.079,8.874 22.997,8.998 23.121 " stroke="none" fill="currentColor" fill-rule="evenodd"/></svg>